# Blender v2.79 (sub 0) OBJ File: ''
# www.blender.org
v -0.600000 0.600000 -0.600000
v -0.600000 0.600000 0.600000
v 0.600000 0.600000 -0.600000
v 0.600000 0.600000 0.600000
v -0.600000 -0.600000 -0.600000
v -0.600000 -0.600000 0.600000
v 0.600000 -0.600000 -0.600000
v 0.600000 -0.600000 0.600000
v -0.543709 0.600000 -0.906182
v -0.543709 0.600000 0.906182
v 0.543709 0.600000 0.906182
v 0.543709 0.600000 -0.906182
v 0.600000 0.543709 -0.906182
v 0.600000 0.543709 0.906182
v 0.600000 -0.543709 0.906182
v 0.600000 -0.543709 -0.906182
v 0.543709 -0.600000 -0.906182
v 0.543709 -0.600000 0.906182
v -0.543709 -0.600000 0.906182
v -0.543709 -0.600000 -0.906182
v -0.600000 -0.543709 -0.906182
v -0.600000 -0.543709 0.906182
v -0.600000 0.543709 0.906182
v -0.600000 0.543709 -0.906182
v -0.543709 0.900000 -0.906182
v -0.543709 0.900000 0.906182
v 0.543709 0.900000 -0.906182
v 0.543709 0.900000 0.906182
v 0.900000 0.543709 0.906182
v 0.900000 0.543709 -0.906182
v 0.900000 -0.543709 -0.906182
v 0.900000 -0.543709 0.906182
v 0.543709 -0.900000 0.906182
v 0.543709 -0.900000 -0.906182
v -0.543709 -0.900000 -0.906182
v -0.543709 -0.900000 0.906182
v -0.900000 -0.543709 0.906182
v -0.900000 -0.543709 -0.906182
v -0.900000 0.543709 -0.906182
v -0.900000 0.543709 0.906182
vt 0.780769 0.989056
vt 0.751922 0.883353
vt 0.780769 0.883353
vt 0.948293 0.671945
vt 0.977139 0.777649
vt 0.948293 0.777649
vt 0.723076 0.883353
vt 0.751922 0.989056
vt 0.723076 0.989056
vt 0.694230 0.883353
vt 0.723076 0.989056
vt 0.694230 0.989056
vt 0.307692 0.777649
vt 0.423077 0.894296
vt 0.307692 0.894296
vt 0.307692 0.894296
vt 0.192308 0.777649
vt 0.307692 0.777649
vt 0.873790 0.653946
vt 0.769230 0.548243
vt 0.873790 0.548243
vt 0.492307 1.000000
vt 0.423077 0.883353
vt 0.492307 0.883353
vt 0.527636 0.883353
vt 0.632195 0.777649
vt 0.632195 0.883353
vt 0.527636 0.777649
vt 0.423077 0.883353
vt 0.423077 0.777649
vt 0.786041 0.777649
vt 0.681482 0.671945
vt 0.786041 0.671945
vt 0.736755 0.883353
vt 0.841314 0.777649
vt 0.841314 0.883353
vt 0.576923 0.777649
vt 0.681482 0.671945
vt 0.681482 0.777649
vt 0.786041 0.777649
vt 0.890601 0.671945
vt 0.890601 0.777649
vt 0.632195 0.883353
vt 0.736755 0.777649
vt 0.736755 0.883353
vt 0.607692 0.989056
vt 0.578846 0.883353
vt 0.607692 0.883353
vt 0.636538 0.883353
vt 0.665384 0.989056
vt 0.636538 0.989056
vt 0.550000 0.883353
vt 0.578846 0.989056
vt 0.550000 0.989056
vt 0.636538 0.989056
vt 0.607692 0.883353
vt 0.636538 0.883353
vt 0.838461 0.989056
vt 0.809615 0.883353
vt 0.838461 0.883353
vt 0.943020 0.548243
vt 0.971867 0.653946
vt 0.943021 0.653946
vt 0.665384 0.883353
vt 0.694230 0.989056
vt 0.665384 0.989056
vt 0.919447 0.777649
vt 0.890601 0.671945
vt 0.919447 0.671945
vt 0.550000 0.989056
vt 0.521153 0.883353
vt 0.780769 0.883353
vt 0.809615 0.989056
vt 0.780769 0.989056
vt 0.521153 0.989056
vt 0.492307 0.883353
vt 0.521153 0.883353
vt 0.948293 0.777649
vt 0.919447 0.671945
vt 0.948293 0.671945
vt 0.943021 0.664890
vt 0.873790 0.548243
vt 0.943020 0.548243
vt 0.910545 0.894296
vt 0.841314 0.777649
vt 0.910545 0.777649
vt 0.979775 0.894296
vt 0.910545 0.894296
vt 0.751922 0.989056
vt 0.977139 0.671945
vt 0.751922 0.883353
vt 0.723076 0.883353
vt 0.423077 0.777649
vt 0.192308 0.894296
vt 0.769230 0.653946
vt 0.423077 1.000000
vt 0.527636 0.777649
vt 0.527636 0.883353
vt 0.681482 0.777649
vt 0.736755 0.777649
vt 0.576923 0.671945
vt 0.786041 0.671945
vt 0.632195 0.777649
vt 0.578846 0.989056
vt 0.665384 0.883353
vt 0.578846 0.883353
vt 0.607692 0.989056
vt 0.809615 0.989056
vt 0.971867 0.548243
vt 0.694230 0.883353
vt 0.890601 0.777649
vt 0.521153 0.989056
vt 0.809615 0.883353
vt 0.492307 0.989056
vt 0.919447 0.777649
vt 0.873790 0.664890
vt 0.841314 0.894296
vt 0.979775 0.777649
vn 0.0000 0.0000 1.0000
vn 0.0000 -1.0000 0.0000
vn 1.0000 0.0000 0.0000
vn 0.0000 0.0000 -1.0000
vn 0.0000 1.0000 0.0000
vn -1.0000 0.0000 0.0000
s off
f 23/1/1 37/2/1 22/3/1
f 16/4/2 32/5/2 15/6/2
f 19/7/1 33/8/1 18/9/1
f 12/10/3 28/11/3 11/12/3
f 7/13/4 1/14/4 3/15/4
f 4/16/1 6/17/1 8/18/1
f 20/19/5 18/20/5 17/21/5
f 1/22/5 4/23/5 3/24/5
f 16/25/6 14/26/6 13/27/6
f 12/28/2 10/29/2 9/30/2
f 21/31/3 23/32/3 22/33/3
f 26/34/5 27/35/5 25/36/5
f 29/37/3 31/38/3 30/39/3
f 33/40/2 35/41/2 34/42/2
f 37/43/6 39/44/6 38/45/6
f 20/46/6 36/47/6 19/48/6
f 24/49/5 40/50/5 23/51/5
f 10/52/6 25/53/6 9/54/6
f 14/55/5 30/56/5 13/57/5
f 9/58/4 27/59/4 12/60/4
f 18/61/3 34/62/3 17/63/3
f 13/64/4 31/65/4 16/66/4
f 22/67/2 38/68/2 21/69/2
f 11/70/1 26/71/1 10/52/1
f 17/72/4 35/73/4 20/74/4
f 15/75/1 29/76/1 14/77/1
f 21/78/4 39/79/4 24/80/4
f 3/81/3 8/82/3 7/83/3
f 7/84/2 6/85/2 5/86/2
f 5/86/6 2/87/6 1/88/6
f 23/1/1 40/89/1 37/2/1
f 16/4/2 31/90/2 32/5/2
f 19/7/1 36/91/1 33/8/1
f 12/10/3 27/92/3 28/11/3
f 7/13/4 5/93/4 1/14/4
f 4/16/1 2/94/1 6/17/1
f 20/19/5 19/95/5 18/20/5
f 1/22/5 2/96/5 4/23/5
f 16/25/6 15/97/6 14/26/6
f 12/28/2 11/98/2 10/29/2
f 21/31/3 24/99/3 23/32/3
f 26/34/5 28/100/5 27/35/5
f 29/37/3 32/101/3 31/38/3
f 33/40/2 36/102/2 35/41/2
f 37/43/6 40/103/6 39/44/6
f 20/46/6 35/104/6 36/47/6
f 24/49/5 39/105/5 40/50/5
f 10/52/6 26/106/6 25/53/6
f 14/55/5 29/107/5 30/56/5
f 9/58/4 25/108/4 27/59/4
f 18/61/3 33/109/3 34/62/3
f 13/64/4 30/110/4 31/65/4
f 22/67/2 37/111/2 38/68/2
f 11/70/1 28/112/1 26/71/1
f 17/72/4 34/113/4 35/73/4
f 15/75/1 32/114/1 29/76/1
f 21/78/4 38/115/4 39/79/4
f 3/81/3 4/116/3 8/82/3
f 7/84/2 8/117/2 6/85/2
f 5/86/6 6/118/6 2/87/6
