# Blender v2.79 (sub 0) OBJ File: ''
# www.blender.org
v -0.700000 1.000000 4.700000
v -0.700000 1.000000 -4.700000
v -1.000000 1.000000 -5.000000
v -1.000000 1.000000 5.000000
v 1.000000 1.000000 5.000000
v 0.700000 1.000000 4.700000
v 0.700000 1.000000 -4.700000
v 1.000000 1.000000 -5.000000
v 1.000000 -1.000000 -5.000000
v -1.000000 -1.000000 -5.000000
v -1.000000 0.700000 4.700000
v -1.000000 -0.700000 4.700000
v -1.000000 -1.000000 5.000000
v -1.000000 0.700000 -4.700000
v 1.000000 -1.000000 5.000000
v 1.000000 0.700000 4.700000
v 1.000000 0.700000 -4.700000
v 1.000000 -0.700000 4.700000
v 1.000000 -0.700000 -4.700000
v -0.700000 -1.000000 -4.700000
v 0.700000 -1.000000 4.700000
v 0.700000 -1.000000 -4.700000
v -0.700000 -1.000000 4.700000
v -1.000000 -0.700000 -4.700000
v -0.700000 0.700000 -4.700000
v -0.700000 0.700000 4.700000
v -0.700000 -0.700000 4.700000
v 0.700000 -0.700000 4.700000
v 0.700000 0.700000 4.700000
v 0.700000 0.700000 -4.700000
v 0.700000 -0.700000 -4.700000
v -0.700000 -0.700000 -4.700000
vt 0.028846 0.017497
vt 0.192308 0.000000
vt 0.163461 0.017497
vt 0.192308 0.583237
vt 0.192308 0.583237
vt 0.384615 0.777649
vt 0.192308 0.777649
vt 0.548077 0.017497
vt 0.576923 0.000000
vt 0.548077 0.565740
vt 0.192308 0.777649
vt 0.000000 0.583237
vt 0.192308 0.583237
vt 0.605769 0.017497
vt 0.576923 0.000000
vt 0.740384 0.017497
vt 0.740384 0.565740
vt 0.769230 0.000000
vt 0.769230 0.583237
vt 0.384615 0.000000
vt 0.355769 0.565740
vt 0.355769 0.017497
vt 0.221154 0.565740
vt 0.192308 0.583237
vt 0.221154 0.017497
vt 0.384615 0.583237
vt 0.413461 0.017497
vt 0.413461 0.565740
vt 0.798077 0.000000
vt 0.826923 0.548243
vt 0.798077 0.548243
vt 0.192308 0.806811
vt 0.163461 0.942899
vt 0.163461 0.806811
vt 0.000000 0.806811
vt 0.028846 0.942899
vt 0.000000 0.942899
vt 0.798077 0.000000
vt 0.769231 0.548243
vt 0.769230 0.000000
vt 0.576923 0.612399
vt 0.548077 0.748487
vt 0.548077 0.612399
vt 0.855769 0.548243
vt 0.826923 0.000000
vt 0.855769 0.000000
vt 0.384615 0.612399
vt 0.413461 0.748487
vt 0.384615 0.748487
vt 0.855769 0.548243
vt 0.884615 0.000000
vt 0.884615 0.548243
vt 0.028846 0.806811
vt 0.413461 0.612399
vt 0.971154 0.548243
vt 0.942308 0.000000
vt 0.971154 0.000000
vt 0.028846 0.972061
vt 0.413461 0.777649
vt 0.548077 0.777649
vt 0.942308 0.548243
vt 0.913462 0.000000
vt 0.942308 0.000000
vt 0.913462 0.548243
vt 0.884615 0.000000
vt 0.913462 0.000000
vt 0.163461 0.777649
vt 0.028846 0.777649
vt 0.548077 0.583237
vt 1.000000 0.548243
vt 0.971154 0.000000
vt 1.000000 0.000000
vt 0.028846 0.565740
vt 0.000000 0.000000
vt 0.000000 0.583237
vt 0.163462 0.565740
vt 0.384615 0.000000
vt 0.576923 0.583237
vt 0.000000 0.777649
vt 0.605769 0.565740
vt 0.576923 0.583237
vt 0.384615 0.583237
vt 0.192308 0.000000
vt 0.826923 0.000000
vt 0.192308 0.942899
vt 0.798077 0.548243
vt 0.576923 0.748487
vt 0.826923 0.548243
vt 0.855769 0.000000
vt 0.942308 0.548243
vt 0.163461 0.972061
vt 0.913462 0.548243
vt 0.884615 0.548243
vt 0.413461 0.583237
vt 0.971154 0.548243
vn 0.0000 1.0000 -0.0000
vn 0.0000 0.0000 -1.0000
vn -1.0000 0.0000 0.0000
vn 0.0000 0.0000 1.0000
vn 1.0000 0.0000 0.0000
vn 0.0000 -1.0000 0.0000
s off
f 1/1/1 5/2/1 6/3/1
f 6/3/1 5/2/1 8/4/1
f 9/5/2 3/6/2 8/7/2
f 11/8/3 4/9/3 14/10/3
f 5/11/4 13/12/4 15/13/4
f 16/14/5 5/15/5 18/16/5
f 19/17/5 15/18/5 9/19/5
f 9/20/6 21/21/6 22/22/6
f 23/23/6 13/24/6 20/25/6
f 10/26/3 12/27/3 24/28/3
f 14/29/6 26/30/6 11/31/6
f 12/32/2 26/33/2 27/34/2
f 18/35/2 29/36/2 16/37/2
f 17/38/6 29/39/6 30/40/6
f 19/41/4 30/42/4 31/43/4
f 19/44/1 28/45/1 18/46/1
f 24/47/4 25/48/4 14/49/4
f 24/50/1 27/51/1 32/52/1
f 28/53/2 26/33/2 29/36/2
f 31/43/4 25/48/4 32/54/4
f 7/55/3 29/56/3 6/57/3
f 26/33/2 6/58/2 29/36/2
f 2/59/4 30/42/4 7/60/4
f 25/61/5 1/62/5 26/63/5
f 31/64/3 21/65/3 28/66/3
f 23/67/2 28/53/2 21/68/2
f 32/54/4 22/69/4 31/43/4
f 20/70/5 27/71/5 23/72/5
f 1/1/1 2/73/1 4/74/1
f 4/74/1 5/2/1 1/1/1
f 2/73/1 3/75/1 4/74/1
f 3/75/1 2/73/1 7/76/1
f 7/76/1 6/3/1 8/4/1
f 8/4/1 3/75/1 7/76/1
f 9/5/2 10/26/2 3/6/2
f 11/8/3 12/27/3 13/77/3
f 4/9/3 3/78/3 14/10/3
f 11/8/3 13/77/3 4/9/3
f 5/11/4 4/79/4 13/12/4
f 16/14/5 17/80/5 8/81/5
f 5/15/5 15/18/5 18/16/5
f 16/14/5 8/81/5 5/15/5
f 8/81/5 17/80/5 19/17/5
f 19/17/5 18/16/5 15/18/5
f 9/19/5 8/81/5 19/17/5
f 22/22/6 20/25/6 9/20/6
f 9/20/6 15/82/6 21/21/6
f 20/25/6 10/83/6 9/20/6
f 23/23/6 21/21/6 15/82/6
f 13/24/6 10/83/6 20/25/6
f 23/23/6 15/82/6 13/24/6
f 24/28/3 14/10/3 3/78/3
f 10/26/3 13/77/3 12/27/3
f 24/28/3 3/78/3 10/26/3
f 14/29/6 25/84/6 26/30/6
f 12/32/2 11/85/2 26/33/2
f 18/35/2 28/53/2 29/36/2
f 17/38/6 16/86/6 29/39/6
f 19/41/4 17/87/4 30/42/4
f 19/44/1 31/88/1 28/45/1
f 24/47/4 32/54/4 25/48/4
f 24/50/1 12/89/1 27/51/1
f 28/53/2 27/34/2 26/33/2
f 31/43/4 30/42/4 25/48/4
f 7/55/3 30/90/3 29/56/3
f 26/33/2 1/91/2 6/58/2
f 2/59/4 25/48/4 30/42/4
f 25/61/5 2/92/5 1/62/5
f 31/64/3 22/93/3 21/65/3
f 23/67/2 27/34/2 28/53/2
f 32/54/4 20/94/4 22/69/4
f 20/70/5 32/95/5 27/71/5
