# Blender v2.78 (sub 0) OBJ File: ''
# www.blender.org
v 0.000000 0.147737 -3.794128
v 0.740198 -0.147735 -3.721225
v 0.000000 -0.147735 -3.794128
v 0.740198 0.147737 -3.721225
v 1.451950 -0.147735 -3.505317
v 1.451950 0.147737 -3.505317
v 2.107905 -0.147735 -3.154702
v 2.107905 0.147737 -3.154702
v 2.682854 -0.147736 -2.682854
v 2.682854 0.147736 -2.682854
v 3.154703 -0.147736 -2.107905
v 3.154703 0.147736 -2.107905
v 3.505317 -0.147736 -1.451950
v 3.505317 0.147736 -1.451950
v 3.721225 -0.147736 -0.740198
v 3.721225 0.147736 -0.740198
v 3.794128 -0.147736 -0.000000
v 3.794128 0.147736 0.000000
v 3.721226 -0.147736 0.740197
v 3.721226 0.147736 0.740197
v 3.505318 -0.147736 1.451949
v 3.505318 0.147736 1.451949
v 3.154703 -0.147736 2.107905
v 3.154703 0.147736 2.107905
v 2.682854 -0.147736 2.682854
v 2.682854 0.147736 2.682854
v 2.107905 -0.147737 3.154703
v 2.107905 0.147735 3.154703
v 1.451949 -0.147737 3.505318
v 1.451949 0.147735 3.505318
v 0.740197 -0.147737 3.721226
v 0.740197 0.147735 3.721226
v -0.000001 -0.147737 3.794128
v -0.000001 0.147735 3.794128
v -0.740199 -0.147737 3.721225
v -0.740199 0.147735 3.721225
v -1.451952 -0.147737 3.505317
v -1.451952 0.147735 3.505317
v -2.107907 -0.147737 3.154701
v -2.107907 0.147735 3.154701
v -2.682856 -0.147736 2.682852
v -2.682856 0.147736 2.682852
v -3.154704 -0.147736 2.107903
v -3.154704 0.147736 2.107903
v -3.505319 -0.147736 1.451947
v -3.505319 0.147736 1.451947
v -3.721226 -0.147736 0.740194
v -3.721226 0.147736 0.740194
v -3.794128 -0.147736 -0.000004
v -3.794128 0.147736 -0.000004
v -3.721225 -0.147736 -0.740202
v -3.721225 0.147736 -0.740202
v -3.505316 -0.147736 -1.451954
v -3.505316 0.147736 -1.451954
v -3.154700 -0.147736 -2.107909
v -3.154700 0.147736 -2.107909
v -2.682851 -0.147736 -2.682857
v -2.682851 0.147736 -2.682857
v -2.107901 -0.147735 -3.154705
v -2.107901 0.147737 -3.154705
v -1.451945 -0.147735 -3.505320
v 0.000000 0.147736 -2.244279
v 0.437837 0.147736 -2.201156
v -1.451945 0.147737 -3.505320
v -0.740192 -0.147735 -3.721226
v -0.740192 0.147737 -3.721226
v 0.000000 -0.147736 -2.244279
v -0.437834 -0.147736 -2.201157
v 2.201156 0.147736 0.437837
v 2.244279 -0.147736 -0.000000
v 2.201156 -0.147736 0.437837
v 1.586945 -0.147736 1.586945
v 1.866050 0.147736 1.246855
v 1.866050 -0.147736 1.246855
v 2.073444 0.147736 0.858848
v 2.073444 -0.147736 0.858848
v -2.201156 0.147736 -0.437839
v -2.244279 -0.147736 -0.000002
v -2.201156 -0.147736 -0.437839
v 2.201156 -0.147736 -0.437837
v 2.073444 0.147736 -0.858849
v 2.073444 -0.147736 -0.858849
v 2.244279 0.147736 0.000000
v 1.866050 0.147736 -1.246855
v 1.586945 -0.147736 -1.586945
v 1.866050 -0.147736 -1.246855
v -0.437834 0.147736 -2.201157
v -0.437838 -0.147736 2.201156
v -0.000001 0.147736 2.244279
v -0.000001 -0.147736 2.244279
v -1.866049 0.147736 -1.246857
v -2.073443 -0.147736 -0.858851
v -1.866049 -0.147736 -1.246857
v 0.437837 -0.147736 2.201156
v -0.858846 -0.147736 -2.073445
v 1.586945 0.147736 -1.586945
v 1.246855 -0.147736 -1.866050
v -1.246856 0.147736 1.866049
v -0.858850 -0.147736 2.073443
v -1.246856 -0.147736 1.866049
v -0.437838 0.147736 2.201156
v 1.246855 0.147736 -1.866050
v 0.858849 -0.147736 -2.073444
v 1.246855 0.147736 1.866050
v 1.246855 -0.147736 1.866050
v -1.246852 0.147736 -1.866052
v -1.586943 -0.147736 -1.586947
v -1.246852 -0.147736 -1.866052
v -2.073443 0.147736 -0.858851
v 0.858848 0.147736 2.073444
v 0.858848 -0.147736 2.073444
v -1.586946 0.147736 1.586944
v -1.586946 -0.147736 1.586944
v -2.073444 -0.147736 0.858847
v -1.866051 0.147736 1.246853
v -1.866051 -0.147736 1.246853
v 0.437837 -0.147736 -2.201156
v -2.244279 0.147736 -0.000002
v -2.201156 -0.147736 0.437835
v -0.858850 0.147736 2.073443
v 0.858849 0.147736 -2.073444
v 0.437837 0.147736 2.201156
v -2.073444 0.147736 0.858847
v -1.586943 0.147736 -1.586947
v -0.858845 0.147736 -2.073445
v 2.201156 0.147736 -0.437837
v 1.586945 0.147736 1.586945
v -2.201156 0.147736 0.437835
vt 0.0391 0.6932
vt 0.0587 0.6404
vt 0.0587 0.6932
vt 0.0391 0.6404
vt 0.0587 0.5907
vt 0.0391 0.5907
vt 0.0587 0.5460
vt 0.0391 0.5460
vt 0.0196 0.5957
vt 0.0196 0.5460
vt 0.0391 0.5957
vt 0.0196 0.6484
vt 0.0391 0.6484
vt 0.0196 0.7022
vt 0.0391 0.7022
vt 0.0196 0.7550
vt 0.0391 0.7550
vt 0.0196 0.8046
vt 0.0391 0.8046
vt 0.0196 0.8494
vt 0.0391 0.8494
vt 0.0196 0.8874
vt 0.0391 0.8874
vt 0.0196 0.9173
vt 0.0000 1.0000
vt 0.0196 0.9620
vt 0.0196 1.0000
vt 0.0000 0.9620
vt 0.0196 0.9173
vt 0.0000 0.9173
vt 0.0196 0.8676
vt 0.0000 0.8676
vt 0.0196 0.8148
vt 0.0000 0.8148
vt 0.0196 0.7611
vt 0.0000 0.7611
vt 0.0196 0.7083
vt 0.0000 0.7083
vt 0.0196 0.6586
vt 0.0000 0.6586
vt 0.0196 0.6139
vt 0.0000 0.6139
vt 0.0196 0.5759
vt 0.0000 0.5759
vt 0.0196 0.5460
vt 0.0783 0.5460
vt 0.0587 0.5840
vt 0.0587 0.5460
vt 0.0783 0.5840
vt 0.0587 0.6288
vt 0.0783 0.6288
vt 0.0587 0.6784
vt 0.0783 0.6784
vt 0.0587 0.7312
vt 0.0783 0.7312
vt 0.0587 0.7850
vt 0.0783 0.7850
vt 0.0587 0.8377
vt 0.0783 0.8377
vt 0.0587 0.8874
vt 0.0391 0.8941
vt 0.0587 0.8494
vt 0.0587 0.8941
vt 0.0391 0.8494
vt 0.0587 0.7997
vt 0.3979 0.2571
vt 0.3922 0.2259
vt 0.4904 0.1934
vt 0.0391 0.7997
vt 0.0587 0.7469
vt 0.0391 0.7469
vt 0.8979 0.2571
vt 0.8922 0.2259
vt 0.9904 0.1934
vt 0.0978 0.6555
vt 0.1174 0.6243
vt 0.1174 0.6555
vt 0.1174 0.7479
vt 0.0978 0.7185
vt 0.1174 0.7185
vt 0.0978 0.6873
vt 0.1174 0.6873
vt 0.1369 0.5685
vt 0.1174 0.5950
vt 0.1174 0.5685
vt 0.1174 0.5950
vt 0.0978 0.5685
vt 0.1174 0.5685
vt 0.0978 0.6243
vt 0.0978 0.5460
vt 0.0783 0.5637
vt 0.0783 0.5460
vt 0.0783 0.6732
vt 0.0978 0.7050
vt 0.0783 0.7050
vt 0.1369 0.5754
vt 0.1565 0.6066
vt 0.1369 0.6066
vt 0.0978 0.8146
vt 0.0783 0.8322
vt 0.0783 0.8146
vt 0.1369 0.6384
vt 0.0783 0.7362
vt 0.0978 0.5637
vt 0.0783 0.5862
vt 0.1369 0.7479
vt 0.1174 0.7744
vt 0.1174 0.7479
vt 0.1021 0.2889
vt 0.1078 0.3201
vt 0.0096 0.3526
vt 0.0978 0.5862
vt 0.0783 0.6126
vt 0.0978 0.7744
vt 0.1174 0.7744
vt 0.0978 0.7656
vt 0.0783 0.7921
vt 0.0783 0.7656
vt 0.1369 0.5460
vt 0.1174 0.5460
vt 0.1565 0.6696
vt 0.1369 0.6990
vt 0.1369 0.6696
vt 0.1369 0.7185
vt 0.1174 0.7185
vt 0.1174 0.6555
vt 0.1369 0.6873
vt 0.1174 0.6873
vt 0.0783 0.6420
vt 0.0978 0.6732
vt 0.1174 0.5460
vt 0.1369 0.5950
vt 0.1174 0.6243
vt 0.1565 0.5460
vt 0.1369 0.5460
vt 0.0978 0.6126
vt 0.1565 0.6384
vt 0.1369 0.6555
vt 0.0978 0.7921
vt 0.6021 0.2889
vt 0.6078 0.3201
vt 0.5096 0.3526
vt 0.0391 0.9173
vt 0.0000 0.5460
vt 0.0783 0.8874
vt 0.4715 0.1437
vt 0.5000 0.2461
vt 0.5000 0.2999
vt 0.3979 0.2889
vt 0.4904 0.3526
vt 0.4715 0.4023
vt 0.3922 0.3201
vt 0.4442 0.4470
vt 0.4094 0.4851
vt 0.3443 0.3984
vt 0.3684 0.5149
vt 0.3229 0.5355
vt 0.3200 0.4161
vt 0.2746 0.5460
vt 0.2646 0.4345
vt 0.2931 0.4283
vt 0.4442 0.0990
vt 0.3810 0.1965
vt 0.3684 0.0311
vt 0.4094 0.0609
vt 0.3200 0.1299
vt 0.2746 0.0000
vt 0.3229 0.0105
vt 0.2646 0.1115
vt 0.2354 0.1115
vt 0.2254 0.0000
vt 0.2931 0.1177
vt 0.3649 0.3759
vt 0.3810 0.3495
vt 0.3443 0.1476
vt 0.3649 0.1701
vt 1.0000 0.2461
vt 1.0000 0.2999
vt 0.9904 0.3526
vt 0.8922 0.3201
vt 0.9715 0.4023
vt 0.9442 0.4470
vt 0.8649 0.3759
vt 0.9094 0.4851
vt 0.8684 0.5149
vt 0.8200 0.4161
vt 0.8229 0.5355
vt 0.7746 0.5460
vt 0.7646 0.4345
vt 0.7931 0.4283
vt 0.8443 0.3984
vt 0.8979 0.2889
vt 0.9442 0.0990
vt 0.9715 0.1437
vt 0.8810 0.1965
vt 0.8684 0.0311
vt 0.9094 0.0609
vt 0.8200 0.1299
vt 0.7746 0.0000
vt 0.8229 0.0105
vt 0.7646 0.1115
vt 0.7354 0.1115
vt 0.7254 0.0000
vt 0.7931 0.1177
vt 0.8443 0.1476
vt 0.8810 0.3495
vt 0.8649 0.1701
vt 0.0978 0.7479
vt 0.0978 0.5950
vt 0.1565 0.5754
vt 0.0978 0.8322
vt 0.0978 0.7362
vt 0.1369 0.7744
vt 0.1771 0.0105
vt 0.2069 0.1177
vt 0.0906 0.0609
vt 0.1316 0.0311
vt 0.1800 0.1299
vt 0.0285 0.1437
vt 0.0558 0.0990
vt 0.1190 0.1965
vt 0.0000 0.2461
vt 0.0096 0.1934
vt 0.1078 0.2259
vt 0.0000 0.2999
vt 0.0558 0.4470
vt 0.0285 0.4023
vt 0.1190 0.3495
vt 0.1316 0.5149
vt 0.0906 0.4851
vt 0.1800 0.4161
vt 0.2254 0.5460
vt 0.1771 0.5355
vt 0.2354 0.4345
vt 0.2069 0.4283
vt 0.1021 0.2571
vt 0.1557 0.1476
vt 0.1351 0.1701
vt 0.1557 0.3984
vt 0.1351 0.3759
vt 0.1565 0.6990
vt 0.0978 0.6420
vt 0.1369 0.6243
vt 0.6771 0.0105
vt 0.7069 0.1177
vt 0.5906 0.0609
vt 0.6316 0.0311
vt 0.6800 0.1299
vt 0.5285 0.1437
vt 0.5558 0.0990
vt 0.6190 0.1965
vt 0.5000 0.2461
vt 0.5096 0.1934
vt 0.6078 0.2259
vt 0.5000 0.2999
vt 0.5558 0.4470
vt 0.5285 0.4023
vt 0.6190 0.3495
vt 0.6316 0.5149
vt 0.5906 0.4851
vt 0.6800 0.4161
vt 0.7254 0.5460
vt 0.6771 0.5355
vt 0.7354 0.4345
vt 0.7069 0.4283
vt 0.6021 0.2571
vt 0.6557 0.1476
vt 0.6351 0.1701
vt 0.6557 0.3984
vt 0.6351 0.3759
vn 0.0000 0.6857 -0.7279
vn 0.1420 -0.6857 -0.7139
vn 0.0000 -0.6857 -0.7279
vn 0.1420 0.6857 -0.7139
vn 0.2786 -0.6857 -0.6725
vn 0.2786 0.6857 -0.6725
vn 0.4044 -0.6857 -0.6052
vn 0.4044 0.6857 -0.6052
vn 0.5147 -0.6857 -0.5147
vn 0.5147 0.6857 -0.5147
vn 0.6052 -0.6857 -0.4044
vn 0.6052 0.6857 -0.4044
vn 0.6725 -0.6857 -0.2786
vn 0.6725 0.6857 -0.2786
vn 0.7139 -0.6857 -0.1420
vn 0.7139 0.6857 -0.1420
vn 0.7279 -0.6857 -0.0000
vn 0.7279 0.6857 -0.0000
vn 0.7139 -0.6857 0.1420
vn 0.7139 0.6857 0.1420
vn 0.6725 -0.6857 0.2786
vn 0.6725 0.6857 0.2786
vn 0.6052 -0.6857 0.4044
vn 0.6052 0.6857 0.4044
vn 0.5147 -0.6857 0.5147
vn 0.5147 0.6857 0.5147
vn 0.4044 -0.6857 0.6052
vn 0.4044 0.6857 0.6052
vn 0.2786 -0.6857 0.6725
vn 0.2786 0.6857 0.6725
vn 0.1420 -0.6857 0.7139
vn 0.1420 0.6857 0.7139
vn -0.0000 -0.6857 0.7279
vn -0.0000 0.6857 0.7279
vn -0.1420 -0.6857 0.7139
vn -0.1420 0.6857 0.7139
vn -0.2786 -0.6857 0.6725
vn -0.2786 0.6857 0.6725
vn -0.4044 -0.6857 0.6052
vn -0.4044 0.6857 0.6052
vn -0.5147 -0.6857 0.5147
vn -0.5147 0.6857 0.5147
vn -0.6052 -0.6857 0.4044
vn -0.6052 0.6857 0.4044
vn -0.6725 -0.6857 0.2785
vn -0.6725 0.6857 0.2785
vn -0.7139 -0.6857 0.1420
vn -0.7139 0.6857 0.1420
vn -0.7279 -0.6857 -0.0000
vn -0.7279 0.6857 -0.0000
vn -0.7139 -0.6857 -0.1420
vn -0.7139 0.6857 -0.1420
vn -0.6725 -0.6857 -0.2786
vn -0.6725 0.6857 -0.2786
vn -0.6052 -0.6857 -0.4044
vn -0.6052 0.6857 -0.4044
vn -0.5147 -0.6857 -0.5147
vn -0.5147 0.6857 -0.5147
vn -0.4044 -0.6857 -0.6052
vn -0.4044 0.6857 -0.6052
vn -0.2785 -0.6857 -0.6725
vn -0.0000 0.7298 0.6836
vn -0.1334 0.7298 0.6705
vn -0.2785 0.6857 -0.6725
vn -0.1420 -0.6857 -0.7139
vn -0.1420 0.6857 -0.7139
vn -0.0000 -0.7298 0.6836
vn 0.1334 -0.7298 0.6705
vn -0.6705 0.7298 -0.1334
vn -0.6836 -0.7298 -0.0000
vn -0.6705 -0.7298 -0.1334
vn -0.4834 -0.7298 -0.4834
vn -0.5684 0.7298 -0.3798
vn -0.5684 -0.7298 -0.3798
vn -0.6316 0.7298 -0.2616
vn -0.6316 -0.7298 -0.2616
vn 0.6705 0.7298 0.1334
vn 0.6836 -0.7298 -0.0000
vn 0.6705 -0.7298 0.1334
vn -0.6705 -0.7298 0.1334
vn -0.6316 0.7298 0.2616
vn -0.6316 -0.7298 0.2616
vn -0.6836 0.7298 0.0000
vn -0.5684 0.7298 0.3798
vn -0.4834 -0.7298 0.4834
vn -0.5684 -0.7298 0.3798
vn 0.1334 0.7298 0.6705
vn 0.1334 -0.7298 -0.6705
vn -0.0000 0.7298 -0.6836
vn -0.0000 -0.7298 -0.6836
vn 0.5684 0.7298 0.3798
vn 0.6316 -0.7298 0.2616
vn 0.5684 -0.7298 0.3798
vn -0.1334 -0.7298 -0.6705
vn 0.2616 -0.7298 0.6316
vn -0.4834 0.7298 0.4834
vn -0.3798 -0.7298 0.5684
vn 0.3798 0.7298 -0.5684
vn 0.2616 -0.7298 -0.6316
vn 0.3798 -0.7298 -0.5684
vn 0.1334 0.7298 -0.6705
vn -0.3798 0.7298 0.5684
vn -0.2616 -0.7298 0.6316
vn -0.3798 0.7298 -0.5684
vn -0.3798 -0.7298 -0.5684
vn 0.3798 0.7298 0.5684
vn 0.4834 -0.7298 0.4834
vn 0.3798 -0.7298 0.5684
vn 0.6316 0.7298 0.2616
vn -0.2616 0.7298 -0.6316
vn -0.2616 -0.7298 -0.6316
vn 0.4834 0.7298 -0.4834
vn 0.4834 -0.7298 -0.4834
vn 0.6316 -0.7298 -0.2616
vn 0.5684 0.7298 -0.3798
vn 0.5684 -0.7298 -0.3798
vn -0.1334 -0.7298 0.6705
vn 0.6836 0.7298 0.0000
vn 0.6705 -0.7298 -0.1334
vn 0.2616 0.7298 -0.6316
vn -0.2616 0.7298 0.6316
vn -0.1334 0.7298 -0.6705
vn 0.6316 0.7298 -0.2616
vn 0.4834 0.7298 0.4834
vn 0.2616 0.7298 0.6316
vn -0.6705 0.7298 0.1334
vn -0.4834 0.7298 -0.4834
vn 0.6705 0.7298 -0.1334
s 1
f 1/1/1 2/2/2 3/3/3
f 4/4/4 5/5/5 2/2/2
f 6/6/6 7/7/7 5/5/5
f 8/8/8 9/9/9 7/10/7
f 10/11/10 11/12/11 9/9/9
f 12/13/12 13/14/13 11/12/11
f 14/15/14 15/16/15 13/14/13
f 16/17/16 17/18/17 15/16/15
f 18/19/18 19/20/19 17/18/17
f 20/21/20 21/22/21 19/20/19
f 22/23/22 23/24/23 21/22/21
f 24/25/24 25/26/25 23/27/23
f 26/28/26 27/29/27 25/26/25
f 28/30/28 29/31/29 27/29/27
f 30/32/30 31/33/31 29/31/29
f 32/34/32 33/35/33 31/33/31
f 34/36/34 35/37/35 33/35/33
f 36/38/36 37/39/37 35/37/35
f 38/40/38 39/41/39 37/39/37
f 40/42/40 41/43/41 39/41/39
f 42/44/42 43/45/43 41/43/41
f 44/46/44 45/47/45 43/48/43
f 46/49/46 47/50/47 45/47/45
f 48/51/48 49/52/49 47/50/47
f 50/53/50 51/54/51 49/52/49
f 52/55/52 53/56/53 51/54/51
f 54/57/54 55/58/55 53/56/53
f 56/59/56 57/60/57 55/58/55
f 58/61/58 59/62/59 57/63/57
f 60/64/60 61/65/61 59/62/59
f 62/66/62 63/67/63 4/68/4
f 64/69/64 65/70/65 61/65/61
f 66/71/66 3/3/3 65/70/65
f 67/72/67 68/73/68 65/74/65
f 69/75/69 70/76/70 71/77/71
f 72/78/72 73/79/73 74/80/74
f 74/80/74 75/81/75 76/82/76
f 77/83/77 78/84/78 79/85/79
f 80/86/80 81/87/81 82/88/82
f 83/89/83 80/86/80 70/76/70
f 84/90/84 85/91/85 86/92/86
f 67/93/67 87/94/87 68/95/68
f 88/96/88 89/97/89 90/98/90
f 91/99/91 92/100/92 93/101/93
f 89/97/89 94/102/94 90/98/90
f 87/94/87 95/103/95 68/95/68
f 96/104/96 97/105/97 85/91/85
f 98/106/98 99/107/99 100/108/100
f 89/109/89 101/110/101 36/111/36
f 102/112/102 103/113/103 97/105/97
f 104/114/104 72/78/72 105/115/105
f 106/116/106 107/117/107 108/118/108
f 109/119/109 79/85/79 92/120/92
f 110/121/110 105/122/105 111/123/111
f 112/124/112 100/108/100 113/125/113
f 114/126/114 115/127/115 116/128/116
f 117/129/117 62/130/62 67/93/67
f 81/87/81 86/131/86 82/88/82
f 118/132/118 119/133/119 78/84/78
f 75/81/75 71/77/71 76/82/76
f 120/134/120 88/96/88 99/135/99
f 95/103/95 106/116/106 108/118/108
f 121/136/121 117/129/117 103/113/103
f 122/137/122 111/123/111 94/102/94
f 119/133/119 123/138/123 114/126/114
f 124/139/124 93/101/93 107/117/107
f 90/140/90 94/141/94 31/142/31
f 115/127/115 113/125/113 116/128/116
f 1/1/1 4/4/4 2/2/2
f 4/4/4 6/6/6 5/5/5
f 6/6/6 8/8/8 7/7/7
f 8/8/8 10/11/10 9/9/9
f 10/11/10 12/13/12 11/12/11
f 12/13/12 14/15/14 13/14/13
f 14/15/14 16/17/16 15/16/15
f 16/17/16 18/19/18 17/18/17
f 18/19/18 20/21/20 19/20/19
f 20/21/20 22/23/22 21/22/21
f 22/23/22 24/143/24 23/24/23
f 24/25/24 26/28/26 25/26/25
f 26/28/26 28/30/28 27/29/27
f 28/30/28 30/32/30 29/31/29
f 30/32/30 32/34/32 31/33/31
f 32/34/32 34/36/34 33/35/33
f 34/36/34 36/38/36 35/37/35
f 36/38/36 38/40/38 37/39/37
f 38/40/38 40/42/40 39/41/39
f 40/42/40 42/44/42 41/43/41
f 42/44/42 44/144/44 43/45/43
f 44/46/44 46/49/46 45/47/45
f 46/49/46 48/51/48 47/50/47
f 48/51/48 50/53/50 49/52/49
f 50/53/50 52/55/52 51/54/51
f 52/55/52 54/57/54 53/56/53
f 54/57/54 56/59/56 55/58/55
f 56/59/56 58/145/58 57/60/57
f 58/61/58 60/64/60 59/62/59
f 60/64/60 64/69/64 61/65/61
f 6/146/6 4/68/4 63/67/63
f 1/147/1 66/148/66 87/149/87
f 64/150/64 60/151/60 125/152/125
f 58/153/58 56/154/56 91/155/91
f 54/156/54 52/157/52 109/158/109
f 50/159/50 118/160/118 77/161/77
f 50/159/50 77/161/77 52/157/52
f 56/154/56 54/156/54 109/158/109
f 66/148/66 64/150/64 87/149/87
f 8/162/8 6/146/6 121/163/121
f 12/164/12 10/165/10 84/166/84
f 16/167/16 14/168/14 126/169/126
f 83/170/83 18/171/18 16/167/16
f 126/169/126 83/170/83 16/167/16
f 14/168/14 81/172/81 126/169/126
f 4/68/4 1/147/1 62/66/62
f 52/157/52 77/161/77 109/158/109
f 56/154/56 109/158/109 91/155/91
f 14/168/14 12/164/12 81/172/81
f 81/172/81 12/164/12 84/166/84
f 58/153/58 91/155/91 124/173/124
f 58/153/58 124/173/124 106/174/106
f 84/166/84 10/165/10 96/175/96
f 96/175/96 10/165/10 8/162/8
f 58/153/58 106/174/106 60/151/60
f 106/174/106 125/152/125 60/151/60
f 102/176/102 96/175/96 8/162/8
f 121/163/121 102/176/102 8/162/8
f 64/150/64 125/152/125 87/149/87
f 1/147/1 87/149/87 62/66/62
f 63/67/63 121/163/121 6/146/6
f 64/69/64 66/71/66 65/70/65
f 66/71/66 1/1/1 3/3/3
f 65/74/65 3/177/3 67/72/67
f 2/178/2 5/179/5 103/180/103
f 7/181/7 9/182/9 85/183/85
f 11/184/11 13/185/13 82/186/82
f 15/187/15 17/188/17 70/189/70
f 15/187/15 70/189/70 80/190/80
f 9/182/9 11/184/11 86/191/86
f 3/177/3 2/178/2 117/192/117
f 59/193/59 61/194/61 95/195/95
f 55/196/55 57/197/57 93/198/93
f 51/199/51 53/200/53 79/201/79
f 78/202/78 49/203/49 51/199/51
f 79/201/79 78/202/78 51/199/51
f 53/200/53 92/204/92 79/201/79
f 61/194/61 65/74/65 68/73/68
f 13/185/13 15/187/15 80/190/80
f 13/185/13 80/190/80 82/186/82
f 53/200/53 55/196/55 92/204/92
f 92/204/92 55/196/55 93/198/93
f 11/184/11 82/186/82 86/191/86
f 9/182/9 86/191/86 85/183/85
f 93/198/93 57/197/57 107/205/107
f 107/205/107 57/197/57 59/193/59
f 7/181/7 85/183/85 97/206/97
f 7/181/7 97/206/97 103/180/103
f 108/207/108 107/205/107 59/193/59
f 95/195/95 108/207/108 59/193/59
f 5/179/5 7/181/7 103/180/103
f 2/178/2 103/180/103 117/192/117
f 68/73/68 95/195/95 61/194/61
f 3/177/3 117/192/117 67/72/67
f 69/75/69 83/89/83 70/76/70
f 72/78/72 127/208/127 73/79/73
f 74/80/74 73/79/73 75/81/75
f 77/83/77 118/132/118 78/84/78
f 80/86/80 126/209/126 81/87/81
f 83/89/83 126/209/126 80/86/80
f 84/90/84 96/104/96 85/91/85
f 67/93/67 62/130/62 87/94/87
f 88/96/88 101/210/101 89/97/89
f 91/99/91 109/211/109 92/100/92
f 89/97/89 122/137/122 94/102/94
f 87/94/87 125/212/125 95/103/95
f 96/104/96 102/112/102 97/105/97
f 98/106/98 120/213/120 99/107/99
f 20/214/20 18/171/18 69/215/69
f 18/171/18 83/170/83 69/215/69
f 24/216/24 22/217/22 75/218/75
f 28/219/28 26/220/26 104/221/104
f 32/222/32 30/223/30 110/224/110
f 36/111/36 34/225/34 89/109/89
f 40/226/40 38/227/38 120/228/120
f 44/229/44 42/230/42 115/231/115
f 48/232/48 46/233/46 128/234/128
f 118/160/118 50/159/50 48/232/48
f 128/234/128 118/160/118 48/232/48
f 46/233/46 123/235/123 128/234/128
f 38/227/38 36/111/36 101/110/101
f 30/223/30 28/219/28 110/224/110
f 22/217/22 20/214/20 69/215/69
f 22/217/22 69/215/69 75/218/75
f 34/225/34 32/222/32 122/236/122
f 46/233/46 44/229/44 123/235/123
f 123/235/123 44/229/44 115/231/115
f 24/216/24 75/218/75 73/237/73
f 24/216/24 73/237/73 127/238/127
f 115/231/115 42/230/42 112/239/112
f 112/239/112 42/230/42 40/226/40
f 24/216/24 127/238/127 26/220/26
f 127/238/127 104/221/104 26/220/26
f 98/240/98 112/239/112 40/226/40
f 120/228/120 98/240/98 40/226/40
f 28/219/28 104/221/104 110/224/110
f 32/222/32 110/224/110 122/236/122
f 101/110/101 120/228/120 38/227/38
f 34/225/34 122/236/122 89/109/89
f 102/112/102 121/136/121 103/113/103
f 104/114/104 127/208/127 72/78/72
f 106/116/106 124/139/124 107/117/107
f 109/119/109 77/83/77 79/85/79
f 110/121/110 104/241/104 105/122/105
f 112/124/112 98/106/98 100/108/100
f 114/126/114 123/138/123 115/127/115
f 117/129/117 63/242/63 62/130/62
f 81/87/81 84/90/84 86/131/86
f 118/132/118 128/243/128 119/133/119
f 75/81/75 69/75/69 71/77/71
f 120/134/120 101/210/101 88/96/88
f 95/103/95 125/212/125 106/116/106
f 121/136/121 63/242/63 117/129/117
f 122/137/122 110/121/110 111/123/111
f 119/133/119 128/243/128 123/138/123
f 124/139/124 91/99/91 93/101/93
f 47/244/47 49/203/49 78/202/78
f 47/244/47 78/202/78 119/245/119
f 43/246/43 45/247/45 114/248/114
f 39/249/39 41/250/41 100/251/100
f 35/252/35 37/253/37 99/254/99
f 31/142/31 33/255/33 90/140/90
f 27/256/27 29/257/29 111/258/111
f 23/259/23 25/260/25 74/261/74
f 19/262/19 21/263/21 71/264/71
f 70/189/70 17/188/17 19/262/19
f 71/264/71 70/189/70 19/262/19
f 21/263/21 76/265/76 71/264/71
f 29/257/29 31/142/31 94/141/94
f 37/253/37 39/249/39 99/254/99
f 45/247/45 47/244/47 119/245/119
f 45/247/45 119/245/119 114/248/114
f 33/255/33 35/252/35 88/266/88
f 21/263/21 23/259/23 76/265/76
f 76/265/76 23/259/23 74/261/74
f 43/246/43 114/248/114 116/267/116
f 43/246/43 116/267/116 113/268/113
f 74/261/74 25/260/25 72/269/72
f 72/269/72 25/260/25 27/256/27
f 43/246/43 113/268/113 41/250/41
f 113/268/113 100/251/100 41/250/41
f 105/270/105 72/269/72 27/256/27
f 111/258/111 105/270/105 27/256/27
f 39/249/39 100/251/100 99/254/99
f 35/252/35 99/254/99 88/266/88
f 94/141/94 111/258/111 29/257/29
f 33/255/33 88/266/88 90/140/90
f 115/127/115 112/124/112 113/125/113
