# Blender v2.79 (sub 0) OBJ File: 'snow-block.blend'
# www.blender.org
v -0.119968 -0.149968 0.239935
v -0.119968 -0.119968 0.299935
v -0.149968 -0.119968 0.239935
v -0.119968 -0.149968 0.279935
v -0.139968 -0.149968 0.239935
v -0.139968 -0.149968 0.279935
v -0.139968 -0.119968 0.299935
v -0.119968 -0.139968 0.299935
v -0.139968 -0.139968 0.299935
v -0.149968 -0.139968 0.239935
v -0.149968 -0.119968 0.279935
v -0.149968 -0.139968 0.279935
v -0.119968 0.119968 0.299935
v -0.119968 0.149968 0.239935
v -0.149968 0.119968 0.239935
v -0.119968 0.139968 0.299935
v -0.139968 0.119968 0.299935
v -0.139968 0.139968 0.299935
v -0.139968 0.149968 0.239935
v -0.119968 0.149968 0.279935
v -0.139968 0.149968 0.279935
v -0.149968 0.119968 0.279935
v -0.149968 0.139968 0.239935
v -0.149968 0.139968 0.279935
v -0.119968 -0.149968 -0.239935
v -0.149968 -0.119968 -0.239935
v -0.119968 -0.119968 -0.299935
v -0.139968 -0.149968 -0.239935
v -0.119968 -0.149968 -0.279935
v -0.139968 -0.149968 -0.279935
v -0.149968 -0.119968 -0.279935
v -0.149968 -0.139968 -0.239935
v -0.149968 -0.139968 -0.279935
v -0.119968 -0.139968 -0.299935
v -0.139968 -0.119968 -0.299935
v -0.139968 -0.139968 -0.299935
v -0.119968 0.149968 -0.239935
v -0.119968 0.119968 -0.299935
v -0.149968 0.119968 -0.239935
v -0.119968 0.149968 -0.279935
v -0.139968 0.149968 -0.239935
v -0.139968 0.149968 -0.279935
v -0.139968 0.119968 -0.299935
v -0.119968 0.139968 -0.299935
v -0.139968 0.139968 -0.299935
v -0.149968 0.139968 -0.239935
v -0.149968 0.119968 -0.279935
v -0.149968 0.139968 -0.279935
v 0.119968 -0.149968 0.239935
v 0.149968 -0.119968 0.239935
v 0.119968 -0.119968 0.299935
v 0.139968 -0.149968 0.239935
v 0.119968 -0.149968 0.279935
v 0.139968 -0.149968 0.279935
v 0.149968 -0.119968 0.279935
v 0.149968 -0.139968 0.239935
v 0.149968 -0.139968 0.279935
v 0.119968 -0.139968 0.299935
v 0.139968 -0.119968 0.299935
v 0.139968 -0.139968 0.299935
v 0.119968 0.149968 0.239935
v 0.119968 0.119968 0.299935
v 0.149968 0.119968 0.239935
v 0.119968 0.149968 0.279935
v 0.139968 0.149968 0.239935
v 0.139968 0.149968 0.279935
v 0.139968 0.119968 0.299935
v 0.119968 0.139968 0.299935
v 0.139968 0.139968 0.299935
v 0.149968 0.139968 0.239935
v 0.149968 0.119968 0.279935
v 0.149968 0.139968 0.279935
v 0.119968 -0.149968 -0.239935
v 0.119968 -0.119968 -0.299935
v 0.149968 -0.119968 -0.239935
v 0.119968 -0.149968 -0.279935
v 0.139968 -0.149968 -0.239935
v 0.139968 -0.149968 -0.279935
v 0.139968 -0.119968 -0.299935
v 0.119968 -0.139968 -0.299935
v 0.139968 -0.139968 -0.299935
v 0.149968 -0.139968 -0.239935
v 0.149968 -0.119968 -0.279935
v 0.149968 -0.139968 -0.279935
v 0.119968 0.149968 -0.239935
v 0.149968 0.119968 -0.239935
v 0.119968 0.119968 -0.299935
v 0.139968 0.149968 -0.239935
v 0.119968 0.149968 -0.279935
v 0.139968 0.149968 -0.279935
v 0.149968 0.119968 -0.279935
v 0.149968 0.139968 -0.239935
v 0.149968 0.139968 -0.279935
v 0.119968 0.139968 -0.299935
v 0.139968 0.119968 -0.299935
v 0.139968 0.139968 -0.299935
vt 0.974912 0.025088
vt 0.774958 0.225042
vt 0.774958 0.025088
vt 0.275044 0.474999
vt 0.474999 0.275044
vt 0.474999 0.474999
vt 0.025088 0.474999
vt 0.225042 0.275044
vt 0.225042 0.474999
vt 0.974912 0.275044
vt 0.774958 0.474999
vt 0.774958 0.275044
vt 0.974912 0.525001
vt 0.774958 0.724956
vt 0.774958 0.525001
vt 0.724956 0.258377
vt 0.741623 0.275044
vt 0.724956 0.275044
vt 0.724956 0.250043
vt 0.741623 0.258377
vt 0.774958 0.241710
vt 0.758290 0.225042
vt 0.774958 0.258377
vt 0.758290 0.241710
vt 0.758290 0.275044
vt 0.758290 0.258377
vt 0.741623 0.250043
vt 0.749957 0.258377
vt 0.991580 0.225042
vt 0.974912 0.241710
vt 0.974912 0.225042
vt 0.999913 0.225042
vt 0.991580 0.241710
vt 0.008420 0.275044
vt 0.025088 0.258377
vt 0.025088 0.275044
vt 0.000087 0.275044
vt 0.008420 0.258377
vt 0.974912 0.258377
vt 0.991580 0.275044
vt 0.991580 0.258377
vt 0.999913 0.241710
vt 0.991580 0.250043
vt 0.741623 0.474999
vt 0.724956 0.491666
vt 0.724956 0.474999
vt 0.758290 0.474999
vt 0.741623 0.491666
vt 0.774958 0.491666
vt 0.774958 0.508334
vt 0.758290 0.491666
vt 0.758290 0.525001
vt 0.749957 0.525001
vt 0.758290 0.508334
vt 0.749957 0.491666
vt 0.741623 0.500000
vt 0.025088 0.491666
vt 0.008420 0.474999
vt 0.025088 0.500000
vt 0.008420 0.491666
vt 0.974912 0.508334
vt 0.991580 0.525001
vt 0.974912 0.491666
vt 0.991580 0.508334
vt 0.991580 0.474999
vt 0.974912 0.474999
vt 0.999913 0.474999
vt 0.991580 0.491666
vt 0.008420 0.500000
vt 0.000087 0.491666
vt 0.508334 0.275044
vt 0.525001 0.258377
vt 0.525001 0.275044
vt 0.491666 0.275044
vt 0.508334 0.258377
vt 0.474999 0.258377
vt 0.474999 0.250043
vt 0.491666 0.258377
vt 0.758290 0.025088
vt 0.774958 0.008420
vt 0.749957 0.025088
vt 0.758290 0.008420
vt 0.500000 0.258377
vt 0.508334 0.250043
vt 0.225042 0.258377
vt 0.241710 0.275044
vt 0.225042 0.250043
vt 0.241710 0.258377
vt 0.974912 0.008420
vt 0.991580 0.025088
vt 0.974912 0.000087
vt 0.991580 0.008420
vt 0.258377 0.275044
vt 0.275044 0.258377
vt 0.275044 0.275044
vt 0.258377 0.258377
vt 0.241710 0.250043
vt 0.250043 0.258377
vt 0.525001 0.491666
vt 0.508334 0.474999
vt 0.525001 0.474999
vt 0.525001 0.500000
vt 0.508334 0.491666
vt 0.774958 0.741623
vt 0.758290 0.724956
vt 0.774958 0.749957
vt 0.758290 0.741623
vt 0.491666 0.474999
vt 0.474999 0.491666
vt 0.491666 0.491666
vt 0.508334 0.500000
vt 0.500000 0.491666
vt 0.241710 0.474999
vt 0.225042 0.491666
vt 0.258377 0.474999
vt 0.241710 0.491666
vt 0.275044 0.491666
vt 0.275044 0.500000
vt 0.258377 0.491666
vt 0.991580 0.724956
vt 0.974912 0.741623
vt 0.974912 0.724956
vt 0.999913 0.724956
vt 0.991580 0.741623
vt 0.250043 0.491666
vt 0.241710 0.500000
vt 0.000087 0.258377
vt 0.749957 0.508334
vt 0.999913 0.491666
vt 0.491666 0.250043
vt 0.749957 0.008420
vt 0.991580 0.000087
vt 0.758290 0.749957
vt 0.258377 0.500000
vt 0.999913 0.741623
vt 0.000087 0.474999
vt 0.724956 0.500000
vt 0.225042 0.500000
vt 0.474999 0.500000
vt 0.774958 0.000087
vt 0.525001 0.250043
vt 0.025088 0.250043
vn 0.0000 0.0000 1.0000
vn 1.0000 0.0000 0.0000
vn 0.0000 1.0000 0.0000
vn -1.0000 0.0000 0.0000
vn 0.0000 0.0000 -1.0000
vn 0.0000 -0.9732 0.2297
vn -0.3827 -0.9239 0.0000
vn 0.0000 -1.0000 0.0000
vn 0.0000 -0.5257 0.8506
vn -0.3595 -0.9099 0.2069
vn -0.5257 0.0000 0.8506
vn -0.9732 0.0000 0.2297
vn -0.4460 -0.4460 0.7759
vn -0.9239 -0.3827 0.0000
vn -0.9099 -0.3595 0.2069
vn 0.0000 0.5257 0.8506
vn 0.0000 0.9732 0.2297
vn -0.4460 0.4460 0.7759
vn -0.3827 0.9239 0.0000
vn -0.9239 0.3827 0.0000
vn -0.3595 0.9099 0.2069
vn -0.9099 0.3595 0.2069
vn 0.0000 -0.9732 -0.2297
vn -0.3595 -0.9099 -0.2069
vn -0.9732 0.0000 -0.2297
vn -0.5257 0.0000 -0.8506
vn -0.9099 -0.3595 -0.2069
vn 0.0000 -0.5257 -0.8506
vn -0.4460 -0.4460 -0.7759
vn 0.0000 0.9732 -0.2297
vn 0.0000 0.5257 -0.8506
vn -0.3595 0.9099 -0.2069
vn -0.4460 0.4460 -0.7759
vn -0.9099 0.3595 -0.2069
vn 0.3827 -0.9239 0.0000
vn 0.9239 -0.3827 0.0000
vn 0.3595 -0.9099 0.2069
vn 0.9732 0.0000 0.2297
vn 0.5257 0.0000 0.8506
vn 0.9099 -0.3595 0.2069
vn 0.4460 -0.4460 0.7759
vn 0.3827 0.9239 0.0000
vn 0.3595 0.9099 0.2069
vn 0.4460 0.4460 0.7759
vn 0.9239 0.3827 0.0000
vn 0.9099 0.3595 0.2069
vn 0.3595 -0.9099 -0.2069
vn 0.5257 0.0000 -0.8506
vn 0.9732 0.0000 -0.2297
vn 0.4460 -0.4460 -0.7759
vn 0.9099 -0.3595 -0.2069
vn 0.3595 0.9099 -0.2069
vn 0.9099 0.3595 -0.2069
vn 0.4460 0.4460 -0.7759
s 1
f 62/1/1 2/2/1 51/3/1
f 86/4/2 50/5/2 75/6/2
f 37/7/3 61/8/3 85/9/3
f 15/10/4 26/11/4 3/12/4
f 38/13/5 74/14/5 27/15/5
f 4/16/6 5/17/7 1/18/8
f 8/19/9 6/20/10 4/16/6
f 7/21/11 8/22/9 2/2/1
f 11/23/12 9/24/13 7/21/11
f 10/25/14 11/23/12 3/12/4
f 5/17/7 12/26/15 10/25/14
f 6/20/10 9/27/13 12/28/15
f 16/29/16 17/30/11 13/31/1
f 20/32/17 18/33/18 16/29/16
f 19/34/19 20/35/17 14/36/3
f 23/37/20 21/38/21 19/34/19
f 22/39/12 23/40/20 15/10/4
f 17/30/11 24/41/22 22/39/12
f 18/33/18 21/42/21 24/43/22
f 28/44/7 29/45/23 25/46/8
f 32/47/14 30/48/24 28/44/7
f 31/49/25 32/47/14 26/11/4
f 35/50/26 33/51/27 31/49/25
f 34/52/28 35/50/26 27/15/5
f 29/53/23 36/54/29 34/52/28
f 30/48/24 33/55/27 36/56/29
f 40/57/30 41/58/19 37/7/3
f 44/59/31 42/60/32 40/57/30
f 43/61/26 44/62/31 38/13/5
f 47/63/25 45/64/33 43/61/26
f 46/65/20 47/63/25 39/66/4
f 41/67/19 48/68/34 46/65/20
f 42/60/32 45/69/33 48/70/34
f 52/71/35 53/72/6 49/73/8
f 56/74/36 54/75/37 52/71/35
f 55/76/38 56/74/36 50/5/2
f 59/77/39 57/78/40 55/76/38
f 58/79/9 59/80/39 51/3/1
f 53/81/6 60/82/41 58/79/9
f 54/75/37 57/83/40 60/84/41
f 64/85/17 65/86/42 61/8/3
f 68/87/16 66/88/43 64/85/17
f 67/89/39 68/90/16 62/1/1
f 71/91/38 69/92/44 67/89/39
f 70/93/45 71/94/38 63/95/2
f 65/86/42 72/96/46 70/93/45
f 66/88/43 69/97/44 72/98/46
f 76/99/23 77/100/35 73/101/8
f 80/102/28 78/103/47 76/99/23
f 79/104/48 80/105/28 74/14/5
f 83/106/49 81/107/50 79/104/48
f 82/108/36 83/109/49 75/6/2
f 77/100/35 84/110/51 82/108/36
f 78/103/47 81/111/50 84/112/51
f 88/113/42 89/114/30 85/9/3
f 92/115/45 90/116/52 88/113/42
f 91/117/49 92/115/45 86/4/2
f 95/118/48 93/119/53 91/117/49
f 94/120/31 95/121/48 87/122/5
f 89/123/30 96/124/54 94/120/31
f 90/116/52 93/125/53 96/126/54
f 1/18/8 28/44/7 25/46/8
f 5/17/7 32/47/14 28/44/7
f 10/25/14 26/11/4 32/47/14
f 13/31/1 7/21/11 2/2/1
f 17/30/11 11/23/12 7/21/11
f 22/39/12 3/12/4 11/23/12
f 37/7/3 19/34/19 14/36/3
f 41/58/19 23/37/20 19/34/19
f 46/65/20 15/10/4 23/40/20
f 27/15/5 43/61/26 38/13/5
f 35/50/26 47/63/25 43/61/26
f 31/49/25 39/66/4 47/63/25
f 25/46/8 76/99/23 73/101/8
f 29/45/23 80/102/28 76/99/23
f 34/52/28 74/14/5 80/105/28
f 85/9/3 40/57/30 37/7/3
f 89/114/30 44/59/31 40/57/30
f 94/120/31 38/13/5 44/62/31
f 75/6/2 91/117/49 86/4/2
f 83/109/49 95/118/48 91/117/49
f 79/104/48 87/122/5 95/121/48
f 73/101/8 52/71/35 49/73/8
f 77/100/35 56/74/36 52/71/35
f 82/108/36 50/5/2 56/74/36
f 61/8/3 88/113/42 85/9/3
f 65/86/42 92/115/45 88/113/42
f 70/93/45 86/4/2 92/115/45
f 51/3/1 67/89/39 62/1/1
f 59/80/39 71/91/38 67/89/39
f 55/76/38 63/95/2 71/94/38
f 49/73/8 4/16/6 1/18/8
f 53/72/6 8/19/9 4/16/6
f 58/79/9 2/2/1 8/22/9
f 14/36/3 64/85/17 61/8/3
f 20/35/17 68/87/16 64/85/17
f 16/29/16 62/1/1 68/90/16
f 73/101/8 1/18/8 25/46/8
f 62/1/1 13/31/1 2/2/1
f 86/4/2 63/95/2 50/5/2
f 37/7/3 14/36/3 61/8/3
f 15/10/4 39/66/4 26/11/4
f 38/13/5 87/122/5 74/14/5
f 4/16/6 6/20/10 5/17/7
f 8/19/9 9/27/13 6/20/10
f 7/21/11 9/24/13 8/22/9
f 11/23/12 12/26/15 9/24/13
f 10/25/14 12/26/15 11/23/12
f 5/17/7 6/20/10 12/26/15
f 16/29/16 18/33/18 17/30/11
f 20/32/17 21/42/21 18/33/18
f 19/34/19 21/38/21 20/35/17
f 23/37/20 24/127/22 21/38/21
f 22/39/12 24/41/22 23/40/20
f 17/30/11 18/33/18 24/41/22
f 28/44/7 30/48/24 29/45/23
f 32/47/14 33/51/27 30/48/24
f 31/49/25 33/51/27 32/47/14
f 35/50/26 36/54/29 33/51/27
f 34/52/28 36/54/29 35/50/26
f 29/53/23 30/128/24 36/54/29
f 40/57/30 42/60/32 41/58/19
f 44/59/31 45/69/33 42/60/32
f 43/61/26 45/64/33 44/62/31
f 47/63/25 48/68/34 45/64/33
f 46/65/20 48/68/34 47/63/25
f 41/67/19 42/129/32 48/68/34
f 52/71/35 54/75/37 53/72/6
f 56/74/36 57/78/40 54/75/37
f 55/76/38 57/78/40 56/74/36
f 59/77/39 60/130/41 57/78/40
f 58/79/9 60/82/41 59/80/39
f 53/81/6 54/131/37 60/82/41
f 64/85/17 66/88/43 65/86/42
f 68/87/16 69/97/44 66/88/43
f 67/89/39 69/92/44 68/90/16
f 71/91/38 72/132/46 69/92/44
f 70/93/45 72/96/46 71/94/38
f 65/86/42 66/88/43 72/96/46
f 76/99/23 78/103/47 77/100/35
f 80/102/28 81/111/50 78/103/47
f 79/104/48 81/107/50 80/105/28
f 83/106/49 84/133/51 81/107/50
f 82/108/36 84/110/51 83/109/49
f 77/100/35 78/103/47 84/110/51
f 88/113/42 90/116/52 89/114/30
f 92/115/45 93/119/53 90/116/52
f 91/117/49 93/119/53 92/115/45
f 95/118/48 96/134/54 93/119/53
f 94/120/31 96/124/54 95/121/48
f 89/123/30 90/135/52 96/124/54
f 1/18/8 5/17/7 28/44/7
f 5/17/7 10/25/14 32/47/14
f 10/25/14 3/12/4 26/11/4
f 13/31/1 17/30/11 7/21/11
f 17/30/11 22/39/12 11/23/12
f 22/39/12 15/10/4 3/12/4
f 37/7/3 41/58/19 19/34/19
f 41/58/19 46/136/20 23/37/20
f 46/65/20 39/66/4 15/10/4
f 27/15/5 35/50/26 43/61/26
f 35/50/26 31/49/25 47/63/25
f 31/49/25 26/11/4 39/66/4
f 25/46/8 29/45/23 76/99/23
f 29/45/23 34/137/28 80/102/28
f 34/52/28 27/15/5 74/14/5
f 85/9/3 89/114/30 40/57/30
f 89/114/30 94/138/31 44/59/31
f 94/120/31 87/122/5 38/13/5
f 75/6/2 83/109/49 91/117/49
f 83/109/49 79/139/48 95/118/48
f 79/104/48 74/14/5 87/122/5
f 73/101/8 77/100/35 52/71/35
f 77/100/35 82/108/36 56/74/36
f 82/108/36 75/6/2 50/5/2
f 61/8/3 65/86/42 88/113/42
f 65/86/42 70/93/45 92/115/45
f 70/93/45 63/95/2 86/4/2
f 51/3/1 59/80/39 67/89/39
f 59/80/39 55/140/38 71/91/38
f 55/76/38 50/5/2 63/95/2
f 49/73/8 53/72/6 4/16/6
f 53/72/6 58/141/9 8/19/9
f 58/79/9 51/3/1 2/2/1
f 14/36/3 20/35/17 64/85/17
f 20/35/17 16/142/16 68/87/16
f 16/29/16 13/31/1 62/1/1
f 73/101/8 49/73/8 1/18/8
